<svg xmlns="http://www.w3.org/2000/svg" width="1920" height="1080" viewBox="0 0 1920 1080">
  <path fill="#0028AA" fill-rule="evenodd" d="M631.704958,728.798761 L544.862262,978.643459 L544.727051,979.013718 C539.424582,994.971172 548.641978,1012.21266 565.324221,1017.52092 L565.324221,1017.52092 L1097.29158,1187.41186 L656.970664,1358.36279 L368.855855,890.879329 L631.704958,728.798761 Z M1207.24036,811.496732 L1468.5488,912.572325 L1422.75487,1213.67399 L1207.24036,811.496732 Z M174.765508,650.666735 L193.177914,1113.52388 L6.11066753e-13,870.550897 L174.765508,650.666735 Z M1753.03034,669.126537 L1973,845.943271 L1766.40226,1105.46426 L1548.62329,930.418514 L1753.03034,669.126537 Z M934.205865,812 L1122.25767,963.669706 L816,963.669706 L934.205865,812 Z M436.444034,417.270879 L723.166181,551.715772 L258,635.155285 L436.444034,417.270879 Z M1612.21603,-153.782164 L1864.43359,32.106417 L1587.45011,37.7724487 L1587.03735,37.7748668 C1569.4323,38.3608475 1555.66017,52.7139022 1556.2825,69.8411289 L1556.2825,69.8411289 L1575.51594,616.210119 L1252.21556,270.445614 L1612.21603,-153.782164 Z M1835.61975,267.282995 L2030.58923,501.858 L1840.94669,508.221207 L1835.61975,267.282995 Z M427.97546,22 L246.96519,251.532527 L246.921505,251.5767 L64,483.516641 L136.091758,164.158875 L427.97546,22 Z M846.552328,-67.5357442 L1037.62267,85.0232665 L858.167461,308.940222 L669,157.909239 L846.552328,-67.5357442 Z"/>
</svg>
