<svg xmlns="http://www.w3.org/2000/svg" width="82" height="80" viewBox="0 0 82 80">
  <g fill="none" transform="translate(1)">
    <path fill="#4279F4" d="M27.8065934,18.2124542 L28.9992674,48.1318681 L50.610989,20.5509158 C50.9388756,20.1317927 51.4209846,19.8614731 51.9496034,19.8003515 C52.4782222,19.73923 53.0092972,19.8924002 53.4241758,20.225641 L66.9040293,31.0417582 L62.5084249,11.8153846 L27.8065934,18.2124542 Z"/>
    <polygon fill="#0028AA" points="29.758 53.621 48.929 53.621 37.158 44.176"/>
    <polygon fill="#014BD1" points="52.507 24.592 39.613 41.043 53.351 52.064 66.382 35.725"/>
    <polygon fill="#BEDCFF" points="24.193 15.326 24.196 15.323 35.534 1.105 17.251 9.911 12.736 29.694"/>
    <polygon fill="#6CA1FF" points="12.988 35.766 25.131 50.992 23.974 21.987"/>
    <polygon fill="#A1C3FF" points="58.992 8.419 41.509 0 30.629 13.644"/>
    <polygon fill="#4279F4" stroke="#4279F4" stroke-width=".938" points=".173 79.707 .173 66.585 1.855 66.585 1.855 73.445 7.856 66.585 9.732 66.585 4.636 72.358 10.224 79.707 8.24 79.707 3.575 73.615 1.864 75.563 1.864 79.707"/>
    <path fill="#4279F4" stroke="#4279F4" stroke-width=".938" d="M11.9032967 76.8380952L11.9032967 70.3296703 13.4945055 70.3296703 13.4945055 76.8937729C13.4804541 77.398633 13.7450257 77.8703586 14.1831502 78.1216117 15.180487 78.6974244 16.4092566 78.6974244 17.4065934 78.1216117 17.8431148 77.8691281 18.1063056 77.3978592 18.0923077 76.8937729L18.0923077 70.3296703 19.6835165 70.3296703 19.6835165 76.8351648C19.7103868 77.7603181 19.2556235 78.6332417 18.4820513 79.1413919 16.8601832 80.2576012 14.7178388 80.2576012 13.0959707 79.1413919 12.3262174 78.6321066 11.8749618 77.76064 11.9032967 76.8380952zM22.4029304 79.7070198L22.4029304 65.6410256 23.9970696 65.6410256 23.9970696 70.5641026C24.8739242 70.248097 25.7963552 70.0768732 26.7282051 70.0571429 27.3584783 70.0444186 27.9822735 70.1862817 28.5450549 70.4703297 29.0434301 70.7217486 29.4661288 71.1009639 29.7699634 71.5692308 30.0625723 72.027039 30.2829789 72.5271545 30.4234432 73.0520147 30.566809 73.5861971 30.6387418 74.1370251 30.6373821 74.6901099 30.6373821 76.3369963 30.208547 77.5863248 29.3509158 78.4380952 28.4932845 79.2898657 27.1443223 79.7128205 25.3040293 79.7070198L22.4029304 79.7070198zM23.9941392 78.2798535L25.3274725 78.2798535C26.6481074 78.2798535 27.597558 77.9868132 28.1758242 77.4007326 28.7540904 76.814652 29.0471306 75.8857143 29.0549451 74.6139194 29.0725478 73.8405827 28.8746979 73.077592 28.4835165 72.4102564 28.1198334 71.791856 27.4416413 71.4278929 26.7252747 71.4666667 25.8012871 71.4437789 24.8813839 71.5969303 24.014652 71.9179487L23.9941392 78.2798535zM32.6300366 75.0007326C32.6300366 73.4945055 33.0295482 72.2930403 33.8285714 71.396337 34.6298661 70.4980674 35.7905776 70.004765 36.9934066 70.0512821 39.6034188 70.0512821 40.9084249 71.8935287 40.9084249 75.578022L34.2241758 75.578022C34.2802975 76.3413311 34.5779391 77.0669607 35.0739927 77.6498168 35.5799756 78.2573871 36.3516484 78.5611722 37.389011 78.5611722 38.449822 78.5920439 39.5046758 78.3920716 40.4805861 77.9750916L40.4805861 79.440293C39.5585532 79.7962855 38.5795586 79.9819569 37.5912088 79.9882784 36.8209634 80.0038673 36.0552017 79.8674442 35.3377289 79.5868132 34.7395798 79.3516921 34.2082854 78.9733461 33.7904762 78.4849817 33.3993015 78.0205251 33.1008672 77.4853329 32.9113553 76.9084249 32.7171942 76.2914273 32.622239 75.6475122 32.6300366 75.0007326L32.6300366 75.0007326zM34.2769231 74.3794872L39.3347985 74.3794872C39.287859 73.6369155 39.0518104 72.9186821 38.6490842 72.2930403 38.2790686 71.7536588 37.655452 71.4451795 37.0021978 71.4783883 36.3091834 71.469909 35.6460962 71.7603433 35.1824176 72.2754579 34.6561235 72.8573091 34.3376676 73.597281 34.2769231 74.3794872L34.2769231 74.3794872z"/>
    <path fill="#0028AA" stroke="#0028AA" stroke-width=".938" d="M42.8776557,71.7626374 L42.8776557,70.3296703 L44.3428571,70.3296703 L44.3428571,68.1054945 C44.3169796,67.4512415 44.5618416,66.8152365 45.0197802,66.3472527 C45.4593332,65.905124 46.0609521,65.6625699 46.6842491,65.6761905 L48.9904762,65.6761905 L48.9904762,67.1062271 L47.5252747,67.1062271 C46.8786325,67.1062271 46.4517705,67.2371184 46.2446886,67.4989011 C46.0376068,67.7606838 45.9340659,68.2490842 45.9340659,68.9641026 L45.9340659,70.3296703 L48.4131868,70.3296703 L48.4131868,71.7567766 L45.9340659,71.7567766 L45.9340659,79.7069597 L44.3428571,79.7069597 L44.3428571,71.7655678 L42.8776557,71.7626374 Z"/>
    <polygon fill="#0028AA" stroke="#0028AA" stroke-width=".938" points="51.065 79.707 51.065 65.641 52.656 65.641 52.656 79.707"/>
    <path fill="#0028AA" stroke="#0028AA" stroke-width=".938" d="M56.6739927,78.5494505 C54.8534958,76.8232048 54.5140422,74.0479207 55.8648103,71.9337877 C57.2155784,69.8196547 59.8765687,68.9614231 62.2080219,69.8879535 C64.5394752,70.814484 65.8855043,73.265124 65.4166574,75.7297366 C64.9478104,78.1943493 62.795984,79.979587 60.2871795,79.985348 C58.9354245,80.0304867 57.6260317,79.5101278 56.6739927,78.5494505 L56.6739927,78.5494505 Z M57.7992674,72.4981685 C56.5506861,73.9462923 56.5506861,76.0903378 57.7992674,77.5384615 C59.1781867,78.9062109 61.4020331,78.9062109 62.7809524,77.5384615 C64.0421991,76.0950678 64.0421991,73.9415622 62.7809524,72.4981685 C61.4020331,71.1304192 59.1781867,71.1304192 57.7992674,72.4981685 L57.7992674,72.4981685 Z"/>
    <polygon fill="#0028AA" stroke="#0028AA" stroke-width=".938" points="66.652 70.33 68.334 70.33 70.473 77.749 72.642 70.33 74.212 70.33 76.363 77.755 78.535 70.33 80.217 70.33 77.272 79.707 75.478 79.707 73.477 72.507 71.487 79.707 69.591 79.707"/>
  </g>
</svg>
